<svg width="371" height="42" viewBox="0 0 371 42" fill="none" xmlns="http://www.w3.org/2000/svg">
<path d="M0.49546 20.8657C0.49546 16.9155 1.37754 13.3872 3.14169 10.2807C4.94419 7.13594 7.37949 4.70065 10.4476 2.97485C13.554 1.21069 17.0248 0.328617 20.8599 0.328617C25.347 0.328617 29.278 1.47915 32.6529 3.78022C36.0278 6.08129 38.3864 9.26443 39.7287 13.3297H30.4669C29.5464 11.4121 28.2425 9.97393 26.5551 9.01515C24.906 8.05637 22.9884 7.57698 20.8024 7.57698C18.463 7.57698 16.3728 8.13307 14.532 9.24526C12.7295 10.3191 11.3105 11.8531 10.275 13.8474C9.27787 15.8417 8.77931 18.1811 8.77931 20.8657C8.77931 23.5119 9.27787 25.8513 10.275 27.8839C11.3105 29.8782 12.7295 31.4314 14.532 32.5436C16.3728 33.6174 18.463 34.1543 20.8024 34.1543C22.9884 34.1543 24.906 33.6749 26.5551 32.7162C28.2425 31.719 29.5464 30.2617 30.4669 28.3441H39.7287C38.3864 32.4477 36.0278 35.65 32.6529 37.9511C29.3163 40.2138 25.3853 41.3452 20.8599 41.3452C17.0248 41.3452 13.554 40.4823 10.4476 38.7565C7.37949 36.9923 4.94419 34.557 3.14169 31.4506C1.37754 28.3441 0.49546 24.8158 0.49546 20.8657ZM65.2463 41.4027C61.4879 41.4027 58.0363 40.5206 54.8915 38.7565C51.7467 36.9923 49.2538 34.557 47.413 31.4506C45.5721 28.3058 44.6517 24.7583 44.6517 20.8081C44.6517 16.8963 45.5721 13.3872 47.413 10.2807C49.2538 7.13594 51.7467 4.68147 54.8915 2.91732C58.0363 1.15317 61.4879 0.271091 65.2463 0.271091C69.043 0.271091 72.4946 1.15317 75.6011 2.91732C78.7459 4.68147 81.2195 7.13594 83.022 10.2807C84.8629 13.3872 85.7833 16.8963 85.7833 20.8081C85.7833 24.7583 84.8629 28.3058 83.022 31.4506C81.2195 34.557 78.7459 36.9923 75.6011 38.7565C72.4563 40.5206 69.0047 41.4027 65.2463 41.4027ZM65.2463 34.2118C67.6624 34.2118 69.7909 33.6749 71.6317 32.6011C73.4726 31.4889 74.9108 29.9165 75.9462 27.8839C76.9817 25.8513 77.4995 23.4927 77.4995 20.8081C77.4995 18.1235 76.9817 15.7841 75.9462 13.7899C74.9108 11.7573 73.4726 10.204 71.6317 9.1302C69.7909 8.05637 67.6624 7.51946 65.2463 7.51946C62.8301 7.51946 60.6825 8.05637 58.8033 9.1302C56.9624 10.204 55.5243 11.7573 54.4888 13.7899C53.4533 15.7841 52.9355 18.1235 52.9355 20.8081C52.9355 23.4927 53.4533 25.8513 54.4888 27.8839C55.5243 29.9165 56.9624 31.4889 58.8033 32.6011C60.6825 33.6749 62.8301 34.2118 65.2463 34.2118ZM105.639 41.4027C102.839 41.4027 100.308 40.9233 98.0455 39.9645C95.8211 39.0057 94.057 37.6251 92.753 35.8226C91.4491 34.0201 90.7779 31.8916 90.7396 29.4371H99.3686C99.4836 31.0862 100.059 32.3902 101.094 33.3489C102.168 34.3077 103.626 34.7871 105.466 34.7871C107.346 34.7871 108.822 34.3461 109.896 33.464C110.97 32.5436 111.507 31.3547 111.507 29.8973C111.507 28.7085 111.142 27.7305 110.414 26.9635C109.685 26.1965 108.765 25.602 107.652 25.1802C106.579 24.7199 105.083 24.2214 103.165 23.6845C100.557 22.9174 98.429 22.1696 96.7799 21.4409C95.1691 20.6739 93.7693 19.5425 92.5804 18.0468C91.4299 16.5128 90.8546 14.4802 90.8546 11.949C90.8546 9.57124 91.4491 7.50028 92.638 5.73613C93.8269 3.97197 95.4951 2.62968 97.6428 1.70926C99.7905 0.75048 102.245 0.271091 105.006 0.271091C109.148 0.271091 112.504 1.2874 115.073 3.32001C117.681 5.31426 119.119 8.1139 119.388 11.7189H110.529C110.452 10.3383 109.858 9.20691 108.745 8.32483C107.672 7.4044 106.233 6.94419 104.431 6.94419C102.859 6.94419 101.593 7.34688 100.634 8.15225C99.7138 8.95762 99.2535 10.1273 99.2535 11.6614C99.2535 12.7352 99.5987 13.6365 100.289 14.3651C101.018 15.0555 101.9 15.6307 102.935 16.0909C104.009 16.5128 105.505 17.0114 107.422 17.5866C110.03 18.3537 112.159 19.1207 113.808 19.8877C115.457 20.6547 116.876 21.8053 118.065 23.3393C119.254 24.8733 119.848 26.8868 119.848 29.3796C119.848 31.5273 119.292 33.5215 118.18 35.3624C117.068 37.2032 115.438 38.6798 113.29 39.7919C111.142 40.8658 108.592 41.4027 105.639 41.4027ZM154.156 0.846358V7.34687H143.456V41H135.402V7.34687H124.702V0.846358H154.156ZM178.67 41.4027C174.912 41.4027 171.46 40.5206 168.316 38.7565C165.171 36.9923 162.678 34.557 160.837 31.4506C158.996 28.3058 158.076 24.7583 158.076 20.8081C158.076 16.8963 158.996 13.3872 160.837 10.2807C162.678 7.13594 165.171 4.68147 168.316 2.91732C171.46 1.15317 174.912 0.271091 178.67 0.271091C182.467 0.271091 185.919 1.15317 189.025 2.91732C192.17 4.68147 194.644 7.13594 196.446 10.2807C198.287 13.3872 199.208 16.8963 199.208 20.8081C199.208 24.7583 198.287 28.3058 196.446 31.4506C194.644 34.557 192.17 36.9923 189.025 38.7565C185.881 40.5206 182.429 41.4027 178.67 41.4027ZM178.67 34.2118C181.087 34.2118 183.215 33.6749 185.056 32.6011C186.897 31.4889 188.335 29.9165 189.37 27.8839C190.406 25.8513 190.924 23.4927 190.924 20.8081C190.924 18.1235 190.406 15.7841 189.37 13.7899C188.335 11.7573 186.897 10.204 185.056 9.1302C183.215 8.05637 181.087 7.51946 178.67 7.51946C176.254 7.51946 174.107 8.05637 172.228 9.1302C170.387 10.204 168.948 11.7573 167.913 13.7899C166.878 15.7841 166.36 18.1235 166.36 20.8081C166.36 23.4927 166.878 25.8513 167.913 27.8839C168.948 29.9165 170.387 31.4889 172.228 32.6011C174.107 33.6749 176.254 34.2118 178.67 34.2118ZM248.977 0.846358V41H240.923V14.8829L230.166 41H224.068L213.253 14.8829V41H205.199V0.846358H214.346L227.117 30.7027L239.888 0.846358H248.977ZM281.561 33.3489H265.569L262.922 41H254.466L268.905 0.788829H278.282L292.721 41H284.207L281.561 33.3489ZM279.375 26.906L273.565 10.1082L267.755 26.906H279.375ZM325.444 0.846358V7.34687H314.744V41H306.69V7.34687H295.99V0.846358H325.444ZM349.959 41.4027C346.2 41.4027 342.749 40.5206 339.604 38.7565C336.459 36.9923 333.966 34.557 332.125 31.4506C330.284 28.3058 329.364 24.7583 329.364 20.8081C329.364 16.8963 330.284 13.3872 332.125 10.2807C333.966 7.13594 336.459 4.68147 339.604 2.91732C342.749 1.15317 346.2 0.271091 349.959 0.271091C353.755 0.271091 357.207 1.15317 360.313 2.91732C363.458 4.68147 365.932 7.13594 367.734 10.2807C369.575 13.3872 370.496 16.8963 370.496 20.8081C370.496 24.7583 369.575 28.3058 367.734 31.4506C365.932 34.557 363.458 36.9923 360.313 38.7565C357.169 40.5206 353.717 41.4027 349.959 41.4027ZM349.959 34.2118C352.375 34.2118 354.503 33.6749 356.344 32.6011C358.185 31.4889 359.623 29.9165 360.658 27.8839C361.694 25.8513 362.212 23.4927 362.212 20.8081C362.212 18.1235 361.694 15.7841 360.658 13.7899C359.623 11.7573 358.185 10.204 356.344 9.1302C354.503 8.05637 352.375 7.51946 349.959 7.51946C347.542 7.51946 345.395 8.05637 343.516 9.1302C341.675 10.204 340.237 11.7573 339.201 13.7899C338.166 15.7841 337.648 18.1235 337.648 20.8081C337.648 23.4927 338.166 25.8513 339.201 27.8839C340.237 29.9165 341.675 31.4889 343.516 32.6011C345.395 33.6749 347.542 34.2118 349.959 34.2118Z" fill="white"/>
</svg>
