<svg width="20" height="24" viewBox="0 0 20 24" fill="none" xmlns="http://www.w3.org/2000/svg">
<path d="M1.62305 0.210938L12 10.5859L14.6777 7.9082C11.0187 5.6882 6.11806 2.71009 3.91406 1.37109L2.4375 0.476562C2.1765 0.317563 1.89705 0.231937 1.62305 0.210938ZM0.0390625 1.45312C0.0180625 1.56713 0 1.68169 0 1.80469V22.3086C0 22.3946 0.0172969 22.4746 0.0292969 22.5566L10.5859 12L0.0390625 1.45312ZM16.4375 8.97656L13.4141 12L16.3848 14.9707C17.9588 14.0167 19.0489 13.3542 19.1699 13.2812C19.7049 12.9543 20.007 12.4609 19.998 11.9219C19.99 11.3929 19.6878 10.9199 19.1738 10.6289C19.0588 10.5629 17.9835 9.91356 16.4375 8.97656ZM12 13.4141L1.6543 23.7598C1.8553 23.7248 2.05605 23.6648 2.24805 23.5488C2.51405 23.3868 9.7 19.0271 14.625 16.0391L12 13.4141Z" fill="white"/>
</svg>
