<svg width="312" height="47" viewBox="0 0 312 47" fill="none" xmlns="http://www.w3.org/2000/svg">
<g clip-path="url(#clip0_27_3)">
<path d="M25.0344 6.31054C28.2102 6.31054 30.9616 6.89916 33.2887 8.07639C35.6158 9.25362 37.3953 10.91 38.6273 13.0454C39.8867 15.1809 40.5164 17.6448 40.5164 20.4373C40.5164 22.6823 40.1194 24.804 39.3254 26.8026C38.5589 28.8012 37.4364 30.4164 35.958 31.6484C34.4796 32.8804 32.7275 33.4964 30.7015 33.4964C29.2779 33.4964 28.128 33.2089 27.252 32.634C26.3759 32.0317 25.8146 31.183 25.5682 30.0879C24.7743 31.1556 23.7476 32.0043 22.4883 32.634C21.2289 33.2363 19.9011 33.5375 18.5048 33.5375C16.4242 33.5375 14.7952 32.9215 13.618 31.6895C12.4407 30.4301 11.8521 28.719 11.8521 26.5562C11.8521 24.5029 12.2765 22.5865 13.1252 20.8069C13.9739 19.0274 15.1511 17.6038 16.6569 16.536C18.1626 15.4409 19.86 14.8934 21.7491 14.8934C24.1035 14.8934 25.7188 15.7147 26.5949 17.3574L26.9645 15.2219H31.7692L29.8391 26.3098C29.757 26.83 29.7159 27.3091 29.7159 27.7471C29.7159 28.4042 29.8528 28.897 30.1266 29.2255C30.4004 29.554 30.8658 29.7183 31.5228 29.7183C32.5084 29.7183 33.3298 29.2529 33.9868 28.3221C34.6713 27.3912 35.1777 26.2277 35.5063 24.8314C35.8622 23.4352 36.0401 22.0389 36.0401 20.6427C36.0401 17.33 35.0272 14.7702 33.0012 12.9633C30.9753 11.129 28.1144 10.2118 24.4184 10.2118C21.27 10.2118 18.4227 10.9784 15.8766 12.5115C13.3305 14.0173 11.3319 16.0843 9.88094 18.7125C8.45731 21.3134 7.74549 24.2154 7.74549 27.4186C7.74549 30.8134 8.74477 33.428 10.7433 35.2622C12.7693 37.0965 15.6302 38.0137 19.3262 38.0137C21.9818 38.0137 24.3226 37.5346 26.3485 36.5764L27.1698 40.3545C24.569 41.4496 21.6806 41.9971 18.5048 41.9971C15.4386 41.9971 12.7556 41.4085 10.4559 40.2313C8.15615 39.0814 6.37662 37.4388 5.11725 35.3033C3.85789 33.1679 3.2282 30.6902 3.2282 27.8703C3.2282 23.8458 4.15904 20.1909 6.02071 16.9056C7.90976 13.6203 10.5106 11.0332 13.8233 9.14411C17.1634 7.25507 20.9004 6.31054 25.0344 6.31054ZM20.3118 29.2666C21.2974 29.2666 22.2008 28.9791 23.0221 28.4042C23.8435 27.8293 24.4868 27.0627 24.9522 26.1045C25.445 25.1463 25.6914 24.1196 25.6914 23.0245C25.6914 21.8746 25.3766 20.9438 24.7469 20.232C24.1172 19.5202 23.2412 19.1643 22.1187 19.1643C21.1057 19.1643 20.2159 19.4791 19.4494 20.1088C18.6828 20.7111 18.0805 21.5051 17.6425 22.4906C17.2318 23.4762 17.0265 24.5166 17.0265 25.6117C17.0265 26.7342 17.3002 27.6239 17.8478 28.281C18.3953 28.938 19.2167 29.2666 20.3118 29.2666ZM44.9015 18.8768C44.9015 16.0569 45.5311 13.5382 46.7905 11.3206C48.0773 9.07567 49.8157 7.3372 52.0059 6.10521C54.2235 4.84585 56.7012 4.21616 59.4389 4.21616C62.6421 4.21616 65.4483 5.03749 67.8575 6.68014C70.2667 8.32279 71.9504 10.5951 72.9086 13.4971H66.297C65.6399 12.1283 64.7091 11.1016 63.5045 10.4172C62.3272 9.73273 60.9584 9.39051 59.3978 9.39051C57.7278 9.39051 56.2357 9.78748 54.9216 10.5814C53.6349 11.348 52.6219 12.4431 51.8827 13.8667C51.1709 15.2904 50.815 16.9604 50.815 18.8768C50.815 20.7659 51.1709 22.4359 51.8827 23.8869C52.6219 25.3105 53.6349 26.4193 54.9216 27.2133C56.2357 27.9798 57.7278 28.3631 59.3978 28.3631C60.9584 28.3631 62.3272 28.0209 63.5045 27.3365C64.7091 26.6246 65.6399 25.5843 66.297 24.2154H72.9086C71.9504 27.1448 70.2667 29.4308 67.8575 31.0735C65.4757 32.6888 62.6695 33.4964 59.4389 33.4964C56.7012 33.4964 54.2235 32.8804 52.0059 31.6484C49.8157 30.3891 48.0773 28.6506 46.7905 26.433C45.5311 24.2154 44.9015 21.6967 44.9015 18.8768ZM91.1247 33.5375C88.4417 33.5375 85.9778 32.9078 83.7328 31.6484C81.4879 30.3891 79.7083 28.6506 78.3942 26.433C77.0801 24.188 76.423 21.6556 76.423 18.8357C76.423 16.0432 77.0801 13.5382 78.3942 11.3206C79.7083 9.07567 81.4879 7.32351 83.7328 6.06414C85.9778 4.80478 88.4417 4.1751 91.1247 4.1751C93.8351 4.1751 96.2991 4.80478 98.5167 6.06414C100.762 7.32351 102.527 9.07567 103.814 11.3206C105.128 13.5382 105.785 16.0432 105.785 18.8357C105.785 21.6556 105.128 24.188 103.814 26.433C102.527 28.6506 100.762 30.3891 98.5167 31.6484C96.2717 32.9078 93.8077 33.5375 91.1247 33.5375ZM91.1247 28.4042C92.8495 28.4042 94.369 28.0209 95.6831 27.2543C96.9972 26.4604 98.0239 25.3379 98.7631 23.8869C99.5022 22.4359 99.8718 20.7522 99.8718 18.8357C99.8718 16.9193 99.5022 15.2493 98.7631 13.8257C98.0239 12.3747 96.9972 11.2659 95.6831 10.4993C94.369 9.73273 92.8495 9.34944 91.1247 9.34944C89.3999 9.34944 87.8668 9.73273 86.5253 10.4993C85.2112 11.2659 84.1845 12.3747 83.4453 13.8257C82.7061 15.2493 82.3366 16.9193 82.3366 18.8357C82.3366 20.7522 82.7061 22.4359 83.4453 23.8869C84.1845 25.3379 85.2112 26.4604 86.5253 27.2543C87.8668 28.0209 89.3999 28.4042 91.1247 28.4042ZM119.96 33.5375C117.961 33.5375 116.154 33.1952 114.539 32.5108C112.951 31.8264 111.692 30.8408 110.761 29.554C109.83 28.2673 109.351 26.7478 109.323 24.9957H115.483C115.566 26.1729 115.976 27.1038 116.715 27.7882C117.482 28.4726 118.522 28.8148 119.836 28.8148C121.178 28.8148 122.232 28.5 122.999 27.8703C123.765 27.2133 124.148 26.3646 124.148 25.3242C124.148 24.4755 123.888 23.7774 123.368 23.2298C122.848 22.6823 122.191 22.2579 121.397 21.9568C120.63 21.6283 119.563 21.2723 118.194 20.8891C116.332 20.3415 114.813 19.8076 113.635 19.2875C112.486 18.7399 111.486 17.9323 110.638 16.8646C109.816 15.7695 109.406 14.3185 109.406 12.5115C109.406 10.8141 109.83 9.33575 110.679 8.07639C111.527 6.81702 112.718 5.85881 114.251 5.20175C115.785 4.51732 117.537 4.1751 119.508 4.1751C122.465 4.1751 124.86 4.9006 126.695 6.35161C128.556 7.77524 129.583 9.77379 129.774 12.3473H123.45C123.396 11.3617 122.971 10.5541 122.177 9.92437C121.411 9.26731 120.384 8.93878 119.097 8.93878C117.975 8.93878 117.071 9.22625 116.387 9.80117C115.73 10.3761 115.401 11.2111 115.401 12.3062C115.401 13.0728 115.648 13.7162 116.14 14.2363C116.661 14.7291 117.29 15.1398 118.03 15.4683C118.796 15.7695 119.864 16.1254 121.233 16.536C123.094 17.0836 124.614 17.6311 125.791 18.1787C126.968 18.7262 127.981 19.5476 128.83 20.6427C129.679 21.7378 130.103 23.1751 130.103 24.9546C130.103 26.4878 129.706 27.9114 128.912 29.2255C128.118 30.5396 126.955 31.5937 125.421 32.3876C123.888 33.1542 122.068 33.5375 119.96 33.5375ZM154.594 4.58576V9.22624H146.956V33.25H141.206V9.22624H133.568V4.58576H154.594ZM172.094 33.5375C169.411 33.5375 166.947 32.9078 164.702 31.6484C162.457 30.3891 160.678 28.6506 159.364 26.433C158.05 24.188 157.393 21.6556 157.393 18.8357C157.393 16.0432 158.05 13.5382 159.364 11.3206C160.678 9.07567 162.457 7.32351 164.702 6.06414C166.947 4.80478 169.411 4.1751 172.094 4.1751C174.805 4.1751 177.269 4.80478 179.486 6.06414C181.731 7.32351 183.497 9.07567 184.784 11.3206C186.098 13.5382 186.755 16.0432 186.755 18.8357C186.755 21.6556 186.098 24.188 184.784 26.433C183.497 28.6506 181.731 30.3891 179.486 31.6484C177.241 32.9078 174.777 33.5375 172.094 33.5375ZM172.094 28.4042C173.819 28.4042 175.338 28.0209 176.653 27.2543C177.967 26.4604 178.993 25.3379 179.733 23.8869C180.472 22.4359 180.841 20.7522 180.841 18.8357C180.841 16.9193 180.472 15.2493 179.733 13.8257C178.993 12.3747 177.967 11.2659 176.653 10.4993C175.338 9.73273 173.819 9.34944 172.094 9.34944C170.369 9.34944 168.836 9.73273 167.495 10.4993C166.181 11.2659 165.154 12.3747 164.415 13.8257C163.676 15.2493 163.306 16.9193 163.306 18.8357C163.306 20.7522 163.676 22.4359 164.415 23.8869C165.154 25.3379 166.181 26.4604 167.495 27.2543C168.836 28.0209 170.369 28.4042 172.094 28.4042ZM222.284 4.58576V33.25H216.534V14.6059L208.855 33.25H204.502L196.781 14.6059V33.25H191.032V4.58576H197.562L206.678 25.8991L215.795 4.58576H222.284ZM245.544 27.7882H234.128L232.239 33.25H226.202L236.51 4.54469H243.203L253.511 33.25H247.433L245.544 27.7882ZM243.984 23.1888L239.836 11.1974L235.688 23.1888H243.984ZM276.87 4.58576V9.22624H269.232V33.25H263.483V9.22624H255.844V4.58576H276.87ZM294.371 33.5375C291.688 33.5375 289.224 32.9078 286.979 31.6484C284.734 30.3891 282.954 28.6506 281.64 26.433C280.326 24.188 279.669 21.6556 279.669 18.8357C279.669 16.0432 280.326 13.5382 281.64 11.3206C282.954 9.07567 284.734 7.32351 286.979 6.06414C289.224 4.80478 291.688 4.1751 294.371 4.1751C297.081 4.1751 299.545 4.80478 301.762 6.06414C304.007 7.32351 305.773 9.07567 307.06 11.3206C308.374 13.5382 309.031 16.0432 309.031 18.8357C309.031 21.6556 308.374 24.188 307.06 26.433C305.773 28.6506 304.007 30.3891 301.762 31.6484C299.518 32.9078 297.054 33.5375 294.371 33.5375ZM294.371 28.4042C296.095 28.4042 297.615 28.0209 298.929 27.2543C300.243 26.4604 301.27 25.3379 302.009 23.8869C302.748 22.4359 303.118 20.7522 303.118 18.8357C303.118 16.9193 302.748 15.2493 302.009 13.8257C301.27 12.3747 300.243 11.2659 298.929 10.4993C297.615 9.73273 296.095 9.34944 294.371 9.34944C292.646 9.34944 291.113 9.73273 289.771 10.4993C288.457 11.2659 287.43 12.3747 286.691 13.8257C285.952 15.2493 285.582 16.9193 285.582 18.8357C285.582 20.7522 285.952 22.4359 286.691 23.8869C287.43 25.3379 288.457 26.4604 289.771 27.2543C291.113 28.0209 292.646 28.4042 294.371 28.4042Z" fill="white"/>
</g>
<defs>
<clipPath id="clip0_27_3">
<rect width="311.375" height="47" fill="white" transform="translate(0.3125)"/>
</clipPath>
</defs>
</svg>
